<svg width="600" height="290" viewBox="0 0 600 220" xmlns="http://www.w3.org/2000/svg">
    <rect width="600" height="290" fill="transparent" />

    <!-- 左上角提示 -->
    <text x="70" y="0" font-family="Arial, sans-serif" font-size="14" fill="#1A73E8">
        Give us a ⭐ on GitHub!
    </text>

    <g transform="translate(20,-26) scale(1.2)">
        <g clip-path="url(#clip0_13391_183193)">
            <path
                d="M31.908 24.9222C31.8979 24.8567 31.8877 24.792 31.8768 24.7273C31.8106 24.3258 31.7287 23.9289 31.6328 23.5375C31.4652 22.8538 31.2539 22.1864 31.0021 21.5401C30.7892 20.9928 30.5468 20.4603 30.2778 19.9442C29.9316 19.2815 29.541 18.6454 29.1099 18.0404C28.5813 17.2989 27.9911 16.6043 27.3464 15.9642C27.0758 15.6952 26.796 15.4356 26.5067 15.1869C25.8807 14.6466 25.2117 14.1547 24.507 13.715C24.5132 13.7048 24.5187 13.6939 24.5249 13.6838C24.8477 13.1263 25.1712 12.5697 25.494 12.0122C25.8097 11.4681 26.1255 10.9239 26.4412 10.3797C26.6681 9.9891 26.895 9.59772 27.1211 9.20713C27.1749 9.11435 27.217 9.01846 27.2489 8.92022C27.337 8.64657 27.3409 8.35889 27.27 8.09147C27.252 8.02521 27.2302 7.9605 27.2037 7.89735C27.1772 7.8342 27.146 7.7726 27.1109 7.71335C26.9901 7.51065 26.8178 7.33445 26.6011 7.20581C26.4093 7.09199 26.1949 7.02416 25.975 7.00467C25.883 6.99687 25.7902 6.99765 25.6982 7.00701C25.6218 7.0148 25.5462 7.02884 25.4714 7.04833C25.204 7.11927 24.956 7.26584 24.7627 7.4779C24.6933 7.55431 24.6309 7.63851 24.5771 7.73128C24.3503 8.12188 24.1234 8.51326 23.8973 8.90385L22.95 10.5364C22.6273 11.0938 22.3037 11.6505 21.981 12.2079C21.9459 12.2687 21.91 12.3296 21.8749 12.3911C21.8258 12.3717 21.7775 12.3522 21.7284 12.3335C19.9485 11.6552 18.0173 11.2841 15.9988 11.2841C15.9435 11.2841 15.8889 11.2841 15.8336 11.2848C14.0388 11.3028 12.3143 11.6146 10.7059 12.1744C10.5196 12.2391 10.3356 12.3077 10.1532 12.3795C10.1204 12.3225 10.0869 12.2656 10.0541 12.2087C9.73137 11.6513 9.40782 11.0946 9.08506 10.5372C8.76931 9.993 8.45355 9.44881 8.1378 8.90463C7.91093 8.51403 7.68406 8.12266 7.45797 7.73206C7.40417 7.63929 7.3418 7.55509 7.27241 7.47868C7.07906 7.26662 6.83114 7.12005 6.56373 7.04911C6.48888 7.02962 6.41326 7.01558 6.33685 7.00779C6.24486 6.99843 6.15208 6.99765 6.06008 7.00545C5.84023 7.02416 5.62583 7.09199 5.43404 7.20659C5.2173 7.33523 5.04578 7.51143 4.92416 7.71413C4.88908 7.77338 4.85789 7.83498 4.83138 7.89813C4.80488 7.96128 4.78227 8.02599 4.76512 8.09225C4.69417 8.35967 4.69807 8.64735 4.78617 8.921C4.81813 9.01924 4.86023 9.11513 4.91403 9.20791C5.1409 9.5985 5.36777 9.98988 5.59386 10.3805C5.90962 10.9247 6.22537 11.4688 6.54112 12.013C6.86389 12.5705 7.18743 13.1271 7.5102 13.6846C7.51254 13.6892 7.51566 13.6939 7.518 13.6986C6.867 14.1032 6.2472 14.5515 5.66247 15.0419C5.31242 15.3358 4.97484 15.6438 4.65129 15.9658C4.00731 16.6058 3.41713 17.3005 2.88776 18.0419C2.45585 18.6469 2.06525 19.2823 1.71987 19.9458C1.4509 20.4619 1.20843 20.9944 0.995595 21.5417C0.743773 22.188 0.532493 22.8554 0.364872 23.5391C0.268977 23.9305 0.187896 24.3265 0.120847 24.7288C0.109932 24.7935 0.0997972 24.859 0.089662 24.9237C0.0537989 25.1568 0.0233933 25.3915 -0.00233459 25.6277H31.9977C31.9719 25.3915 31.9415 25.1568 31.9057 24.9237L31.908 24.9222Z"
                fill="#1A73E8" />
            <path
                d="M24.3214 21.2047C24.9616 20.7787 25.0546 19.7931 24.5292 19.0034C24.0037 18.2137 23.0587 17.9189 22.4185 18.3449C21.7782 18.7709 21.6852 19.7564 22.2107 20.5462C22.7362 21.3359 23.6812 21.6307 24.3214 21.2047Z"
                fill="#202124" />
            <path
                d="M9.81248 20.5489C10.338 19.7592 10.2449 18.7737 9.60471 18.3477C8.96448 17.9216 8.01948 18.2165 7.494 19.0062C6.96852 19.7959 7.06155 20.7814 7.70178 21.2075C8.34201 21.6335 9.287 21.3386 9.81248 20.5489Z"
                fill="#202124" />
        </g>
        <defs>
            <clipPath id="clip0_13391_183193">
                <rect width="32" height="18.627" fill="white" transform="translate(0 7)" />
            </clipPath>
        </defs>
    </g>

    <g transform="translate(190, 0) scale(0.4)">
        <svg xmlns="http://www.w3.org/2000/svg" width="440" height="420" fill="none">
            <path fill="#34A853"
                d="M252 182.609a5.217 5.217 0 0 1 5.217-5.217v25.217a5.217 5.217 0 0 1-5.217-5.217v-14.783ZM252.001 222.606a5.217 5.217 0 0 1 5.217-5.217v41.739a5.218 5.218 0 0 1-5.217-5.218v-31.304Z" />
            <rect width="155.261" height="322.218" x="-1.5" y="1.5" fill="#34A853" stroke="#34A853"
                stroke-width="3" rx="43.5" transform="matrix(-1 0 0 1 429 77.39)" />
            <rect width="158.261" height="325.218" fill="#E6F4EA" rx="45"
                transform="matrix(-1 0 0 1 414.609 77.39)" />
            <path stroke="#A0C2F9" stroke-linecap="round" stroke-width="4"
                d="M371.131 401.74h-69.783c-24.853 0-45-20.147-45-45V123.262c0-24.853 20.147-45 45-45h67.174" />
            <circle cx="4.783" cy="4.783" r="4.783" fill="#4285F4"
                transform="matrix(-1 0 0 1 340.696 88.695)" />
            <rect width="195.789" height="208.421" x="159.322" y="135.791" fill="#fff" stroke="#A7C7FF"
                stroke-width="4.211" rx="31.579" />
            <path fill="#4285F4" fill-rule="evenodd"
                d="M246.551 197.336c0-5.891 4.775-10.667 10.666-10.667s10.667 4.776 10.667 10.667v24.193l20.951-12.097c5.102-2.945 11.626-1.197 14.571 3.905 2.946 5.101 1.198 11.625-3.904 14.57l-20.95 12.096 20.95 12.095c5.102 2.946 6.85 9.469 3.904 14.571-2.945 5.102-9.469 6.85-14.571 3.904l-20.951-12.096v24.192c0 5.891-4.776 10.666-10.667 10.666s-10.666-4.775-10.666-10.666v-24.19l-20.95 12.095c-5.102 2.945-11.625 1.197-14.571-3.905-2.945-5.101-1.197-11.625 3.904-14.57l20.951-12.096-20.951-12.096c-5.101-2.946-6.849-9.469-3.904-14.571 2.946-5.102 9.469-6.85 14.571-3.904l20.95 12.095v-24.191Z"
                clip-rule="evenodd" />
            <path fill="#34A853"
                d="M90 137.5c0-21.263 17.237-38.5 38.5-38.5h49c21.263 0 38.5 17.237 38.5 38.5S198.763 176 177.5 176h-49c-21.263 0-38.5-17.237-38.5-38.5Z" />
            <path fill="#fff"
                d="M168.125 161.937c3.097 0 5.463-.854 7.097-2.562 1.634-1.674 2.451-4.014 2.451-7.02v-7.174c0-1.4.374-2.391 1.123-2.972.715-.615 1.617-.922 2.706-.922h1.226v-5.637h-1.226c-1.089 0-1.991-.29-2.706-.871-.749-.615-1.123-1.622-1.123-3.023v-7.174c0-3.04-.817-5.397-2.451-7.071-1.634-1.674-4-2.511-7.097-2.511h-4.596v5.534h3.881c1.021 0 1.906.376 2.655 1.127.715.718 1.072 1.708 1.072 2.972v7.687c0 1.605.323 2.92.97 3.945s1.685 1.691 3.115 1.999v.41c-1.43.307-2.468.973-3.115 1.998-.647 1.025-.97 2.34-.97 3.946v7.686c0 1.264-.357 2.271-1.072 3.023-.749.717-1.634 1.076-2.655 1.076h-3.881v5.534h4.596ZM137.603 115c-3.098 0-5.463.854-7.097 2.562-1.634 1.674-2.451 4.014-2.451 7.02v7.174c0 1.401-.375 2.391-1.123 2.972-.715.615-1.617.922-2.707.922H123v5.637h1.225c1.09 0 1.992.29 2.707.871.748.615 1.123 1.623 1.123 3.023v7.174c0 3.041.817 5.398 2.451 7.072 1.634 1.673 3.999 2.51 7.097 2.51h4.595v-5.534h-3.88c-1.021 0-1.906-.376-2.655-1.127-.715-.717-1.073-1.708-1.073-2.972v-7.686c0-1.606-.323-2.921-.97-3.946-.646-1.025-1.685-1.691-3.114-1.998v-.41c1.429-.308 2.468-.974 3.114-1.999.647-1.024.97-2.34.97-3.945v-7.686c0-1.264.358-2.272 1.073-3.024.749-.717 1.634-1.076 2.655-1.076h3.88V115h-4.595Z" />
            <path fill="#4285F4" fill-rule="evenodd"
                d="M209.769 299.167c19.934 0 36.322 15.182 38.231 34.614l-17.329-10.005c-9.78-5.646-22.286-2.295-27.932 7.485-5.647 9.78-2.296 22.285 7.484 27.932l19.472 11.242A38.238 38.238 0 0 1 209.769 376c-13.686 0-25.7-7.156-32.505-17.93l-78.403.001v-40.978l78.406-.001c6.806-10.771 18.819-17.925 32.502-17.925Z"
                clip-rule="evenodd" />
            <path stroke="#4285F4" stroke-width="10.245"
                d="M75.81 363.193c-14.145 0-25.611-11.466-25.611-25.611 0-14.144 11.467-25.611 25.611-25.611 14.145 0 25.612 11.466 25.612 25.611 0 14.145-11.467 25.611-25.612 25.611Z" />
            <path stroke="#174EA6" stroke-linecap="round" stroke-width="5.122"
                d="m180.817 337.581-69.15.001" />
        </svg>
    </g>

    <text x="300" y="220" font-family="Comic Sans MS, Arial, sans-serif" font-size="70" font-weight="bold"
        fill="#2F80ED" stroke="#1A73E8" stroke-width="1" text-anchor="middle" alignment-baseline="middle">
        Device Core
    </text>

</svg>